<svg xmlns="http://www.w3.org/2000/svg" width="64" height="64" viewBox="0 0 64 64" role="img" aria-label="MarkLeaf symbol">
  <defs>
    <linearGradient id="grad-book" x1="0%" y1="0%" x2="100%" y2="100%">
      <stop offset="0%" stop-color="#0033A0"/>
      <stop offset="65%" stop-color="#0052c8"/>
      <stop offset="100%" stop-color="#00A3E0"/>
    </linearGradient>
    <filter id="shadow" x="-20%" y="-20%" width="140%" height="140%">
      <feDropShadow dx="0" dy="2" stdDeviation="2" flood-color="#000" flood-opacity="0.18"/>
    </filter>
  </defs>
  <g transform="translate(4,4)" filter="url(#shadow)">
    <rect x="0" y="0" rx="10" ry="10" width="56" height="56" fill="url(#grad-book)"/>
    <rect x="8" y="8" rx="6" ry="6" width="40" height="40" fill="#ffffff" opacity="0.95"/>
    <path d="M48,8 L48,26 C48,30 46,32 42,32 L24,32 L24,8 Z" fill="#E6F7FD" opacity="0.9"/>
    <path d="M24,8 L48,8 L36,20 C34,22 32,24 29,24 L24,24 Z" fill="#00A3E0" opacity="0.85"/>
    <rect x="13" y="15" width="18" height="3" rx="1.5" fill="#0033A0" opacity="0.85"/>
    <rect x="13" y="22" width="14" height="3" rx="1.5" fill="#0052c8" opacity="0.85"/>
    <rect x="13" y="29" width="10" height="3" rx="1.5" fill="#00A3E0" opacity="0.85"/>
  </g>
</svg>

